<svg width="16" height="22" viewBox="0 0 16 22" fill="none" xmlns="http://www.w3.org/2000/svg">
<path d="M10.9808 9.46796L10.9812 9.46836C10.9969 9.48385 11.0093 9.50228 11.0177 9.52259C11.0262 9.54291 11.0305 9.56469 11.0305 9.58669C11.0305 9.60869 11.0262 9.63047 11.0177 9.65079C11.0093 9.67103 10.9969 9.6894 10.9814 9.70486C10.9813 9.70491 10.9813 9.70497 10.9812 9.70502L8.12186 12.5311L8.12185 12.5311L8.11834 12.5346C8.10285 12.5502 8.08441 12.5626 8.0641 12.5711L8.25639 13.0326L8.0641 12.5711C8.04379 12.5795 8.02201 12.5839 8.00001 12.5839C7.978 12.5839 7.95622 12.5795 7.93591 12.5711C7.9156 12.5626 7.89717 12.5502 7.88167 12.5346L7.88023 12.5331L5.05356 9.70647L5.05356 9.70647L5.05211 9.70502C5.03649 9.68953 5.02409 9.6711 5.01563 9.65079C5.00716 9.63048 5.00281 9.60869 5.00281 9.58669C5.00281 9.56469 5.00716 9.5429 5.01563 9.52259C5.02409 9.50228 5.03649 9.48385 5.05211 9.46836L5.05251 9.46796C5.08373 9.43692 5.12598 9.41949 5.17001 9.41949C5.21387 9.41949 5.25596 9.43679 5.28716 9.46761C5.28727 9.46773 5.28739 9.46784 5.28751 9.46796L7.64645 11.8269L7.99754 12.178L8.35107 11.8294L10.7444 9.46938L10.7444 9.46938L10.7458 9.46796C10.7771 9.43692 10.8193 9.41949 10.8633 9.41949C10.9074 9.41949 10.9496 9.43692 10.9808 9.46796Z" stroke="#3579F3"/>
</svg>
