<svg width="16" height="16" viewBox="0 0 16 16" fill="none" xmlns="http://www.w3.org/2000/svg">
<path d="M11.3333 7.33331H6.27334L8.47334 5.13998C8.59887 5.01445 8.6694 4.84418 8.6694 4.66665C8.6694 4.48911 8.59887 4.31885 8.47334 4.19331C8.3478 4.06778 8.17754 3.99725 8 3.99725C7.82247 3.99725 7.6522 4.06778 7.52667 4.19331L4.19334 7.52665C4.13264 7.59005 4.08507 7.66481 4.05334 7.74665C3.98666 7.90896 3.98666 8.09101 4.05334 8.25331C4.08507 8.33515 4.13264 8.40991 4.19334 8.47331L7.52667 11.8066C7.58864 11.8691 7.66238 11.9187 7.74362 11.9526C7.82486 11.9864 7.91199 12.0038 8 12.0038C8.08801 12.0038 8.17515 11.9864 8.25639 11.9526C8.33763 11.9187 8.41136 11.8691 8.47334 11.8066C8.53582 11.7447 8.58542 11.6709 8.61926 11.5897C8.65311 11.5085 8.67053 11.4213 8.67053 11.3333C8.67053 11.2453 8.65311 11.1582 8.61926 11.0769C8.58542 10.9957 8.53582 10.922 8.47334 10.86L6.27334 8.66665H11.3333C11.5101 8.66665 11.6797 8.59641 11.8047 8.47139C11.9298 8.34636 12 8.17679 12 7.99998C12 7.82317 11.9298 7.6536 11.8047 7.52858C11.6797 7.40355 11.5101 7.33331 11.3333 7.33331Z" fill="#3579F3"/>
</svg>
