<svg width="16" height="16" viewBox="0 0 16 16" fill="none" xmlns="http://www.w3.org/2000/svg">
<path d="M12.1183 5.1588L12.1262 5.16667L12.1343 5.1742C12.1512 5.1898 12.1647 5.20875 12.174 5.22983C12.1832 5.25091 12.188 5.27368 12.188 5.2967C12.188 5.31971 12.1832 5.34248 12.174 5.36356C12.1647 5.38465 12.1512 5.40359 12.1343 5.4192L12.1269 5.42602L12.1198 5.43314L6.67979 10.8731L6.67978 10.8731L6.67834 10.8746C6.66285 10.8902 6.64441 10.9026 6.62411 10.9111L6.81639 11.3726L6.6241 10.9111C6.6038 10.9195 6.58201 10.9239 6.56001 10.9239C6.538 10.9239 6.51622 10.9195 6.49591 10.9111L6.30362 11.3726L6.49591 10.9111C6.4756 10.9026 6.45717 10.8902 6.44167 10.8746L6.44168 10.8746L6.44023 10.8731L3.88023 8.31314L3.88028 8.31309L3.87406 8.30708C3.85694 8.29054 3.84324 8.27079 3.83375 8.24896C3.82426 8.22712 3.81916 8.20363 3.81875 8.17983C3.81834 8.15603 3.82262 8.13238 3.83135 8.11023L3.36617 7.92691L3.83135 8.11023C3.84008 8.08808 3.85308 8.06787 3.86962 8.05075C3.88616 8.03362 3.90591 8.01993 3.92775 8.01044C3.94958 8.00095 3.97307 7.99585 3.99687 7.99544C4.02067 7.99503 4.04433 7.99931 4.06647 8.00804C4.08763 8.01637 4.10701 8.02861 4.12362 8.0441L6.20589 10.133L6.55968 10.4879L6.9138 10.1333L11.8805 5.16001L11.8817 5.1588C11.8972 5.14317 11.9156 5.13078 11.9359 5.12231C11.9562 5.11385 11.978 5.1095 12 5.1095C12.022 5.1095 12.0438 5.11385 12.0641 5.12231C12.0844 5.13078 12.1028 5.14317 12.1183 5.1588Z" fill="#3FC23D" stroke="#3FC23D"/>
</svg>
